# xmcd
#
# Track frame offsets:
#  150
#  21280
#  40032
#  64400
#
# Disc length: 1117 seconds
#
# Revision: 0
# Processed by: cddbd v1.5.1PL2 Copyright (c) Steve Scherf et al.
# Submitted via: Collectorz.com_Music_Collector 6.11
#
DISCID=2f045b04
DTITLE=Clapton, Eric - Blue Eyes Blue
DYEAR=1999
DGENRE=Blues Rock
TTITLE0=Blue Eyes Blue - Album Version
TTITLE1=Circus - Album Version
TTITLE2=Wonderful Tonight - Live
TTITLE3=Blue Eyes Blue - Album Edit
EXTD=
EXTT0=
EXTT1=
EXTT2=
EXTT3=
PLAYORDER=
